/* XPM */
static char *_d70ef5049f54d628b7e408eb08ec2119ign2gLeh9TVZBYo[] = {
/* columns rows colors chars-per-pixel */
"64 64 180 2 ",
"   c #2F373F",
".  c #2F383F",
"X  c #32393F",
"o  c #3B3D3C",
"O  c #403F3A",
"+  c #4B4337",
"@  c #464239",
"#  c #534735",
"$  c #5D4B31",
"%  c #585233",
"&  c #664F2E",
"*  c #67502E",
"=  c #69502E",
"-  c #73552B",
";  c #7C5928",
":  c #604D30",
">  c #75642A",
",  c #2F3840",
"<  c #343B40",
"1  c #3A4144",
"2  c #404648",
"3  c #464C4D",
"4  c #494E4A",
"5  c #4F5553",
"6  c #505654",
"7  c #545955",
"8  c #555A58",
"9  c #5E635E",
"0  c #7B734D",
"q  c #6D6B56",
"w  c #62655D",
"e  c #65685D",
"r  c #6B6A58",
"t  c #706E55",
"y  c #6F705B",
"u  c #7D7B57",
"i  c #565F64",
"p  c #585F63",
"a  c #5A6164",
"s  c #5D6568",
"d  c #656A63",
"f  c #6A6F66",
"g  c #646B6C",
"h  c #6F7265",
"j  c #74786E",
"k  c #6C7371",
"l  c #707774",
"z  c #757B75",
"x  c #7A7E73",
"c  c #787E78",
"v  c #9D661D",
"b  c #9F681D",
"n  c #A96C1A",
"m  c #A57F1B",
"M  c #B67616",
"N  c #BB7414",
"B  c #845C26",
"V  c #8A5E24",
"C  c #916221",
"Z  c #CF7D0E",
"A  c #D27D0E",
"S  c #C37812",
"D  c #8C7E43",
"F  c #847948",
"G  c #7E8176",
"H  c #7F847D",
"J  c #A3831C",
"K  c #B4911F",
"L  c #9D8734",
"P  c #9C8739",
"I  c #B4942B",
"U  c #A48B35",
"Y  c #AB9030",
"T  c #BAA43D",
"R  c #DF880A",
"E  c #C19713",
"W  c #E68707",
"Q  c #E98707",
"!  c #EE8905",
"~  c #F38C03",
"^  c #FA8F01",
"/  c #FE9200",
"(  c #FE9B00",
")  c #D8A30C",
"_  c #CAA11E",
"`  c #DAAA15",
"'  c #D0A41B",
"]  c #E9AF07",
"[  c #FEA300",
"{  c #FDAD00",
"}  c #E7B007",
"|  c #ECB60A",
" . c #FDB500",
".. c #F5BA05",
"X. c #FDBF00",
"o. c #F7BC0A",
"O. c #E3B315",
"+. c #F0BC19",
"@. c #C29D23",
"#. c #CCAE31",
"$. c #E8BB2A",
"%. c #E5BF3D",
"&. c #FDC103",
"*. c #FCC30B",
"=. c #FDC80F",
"-. c #FDCB14",
";. c #F7C21A",
":. c #FECF1B",
">. c #FED11E",
",. c #E4C32F",
"<. c #F3CA2C",
"1. c #FED524",
"2. c #F7D52F",
"3. c #FED729",
"4. c #FFDA2D",
"5. c #EACB34",
"6. c #F0C536",
"7. c #F6D437",
"8. c #FCD934",
"9. c #F9D93F",
"0. c #908041",
"q. c #968B4C",
"w. c #948B50",
"e. c #BBA843",
"r. c #B4A550",
"t. c #82857A",
"y. c #868A7F",
"u. c #8C8F7D",
"i. c #A09561",
"p. c #A9A379",
"a. c #B3AC74",
"s. c #C8B343",
"d. c #E2BF45",
"f. c #D6BF65",
"g. c #E2C047",
"h. c #EED247",
"j. c #F6D848",
"k. c #E3CD5D",
"l. c #E9D053",
"z. c #F3D852",
"x. c #D8C972",
"c. c #DECC7F",
"v. c #E2CB70",
"b. c #E7D673",
"n. c #8B8F82",
"m. c #8E9185",
"M. c #8E9388",
"N. c #929583",
"B. c #979B8C",
"V. c #9B9E8A",
"C. c #9B9F90",
"Z. c #9FA18D",
"A. c #9CA091",
"S. c #B4AF82",
"D. c #A5A691",
"F. c #A7A893",
"G. c #ADAE95",
"H. c #ABAD99",
"J. c #AFB097",
"K. c #AFB19C",
"L. c #B5B59A",
"P. c #B7B89C",
"I. c #BCBC9E",
"U. c #B4B6A1",
"Y. c #B7B9A1",
"T. c #BEBEA0",
"R. c #C2BE96",
"E. c #C0BE9A",
"W. c #DECC80",
"Q. c #DCCE8C",
"!. c #DFD48C",
"~. c #C4C095",
"^. c #D9CF96",
"/. c #DBD397",
"(. c #C0C1A7",
"). c #C3C3AA",
"_. c #CACAAC",
"`. c #D3D2AF",
"'. c #CECEB1",
"]. c #D2D2B4",
/* pixels */
"].].].].].].].].].].].].].].].].].].].].].].].].].].].].].].].].].].].].].].].].].].].].].].].].].].].].].].].].].].].].].].].].",
"].].].].].].].].].].].].].].].].].].].].].].].].].].].].].].].].].].].].].].].].].].].].].].].].].].].].].].].].].].].].].].].].",
"].].].].].].].].].].].].].].].].].].].].].].].].].].].].].].].].].].].].].].].].].].].].].].].].].].].].].].].].].].].].].].].].",
"].].].].].].].].].].].].].].].].].].].].].].].].].].].].].].].].].].].].].].].].].].].].].].].].].].].].].].].].].].].].].].].].",
"T.T.T.T.T.T.T.T.T.T.T.T.T.T.T.T.T.T.T.T.T.T.T.T.T.T.T.T.T.T.T.T.T.T.T.T.T.T.T.T.T.T.T.T.T.T.T.T.T.T.T.T.T.T.T.T.T.T.T.T.T.T.T.T.",
"T.T.T.T.T.T.T.T.T.T.T.T.T.T.T.T.T.T.T.T.T.T.T.T.T.T.T.T.T.T.T.T.T.T.T.T.T.T.T.T.T.T.T.T.T.T.T.T.T.T.T.T.T.T.T.T.T.T.T.T.T.T.T.T.",
"T.T.T.T.T.T.T.T.T.T.T.T.T.T.T.T.T.T.T.T.T.T.T.T.T.T.T.T.T.T.T.T.T.T.T.T.T.T.T.T.T.T.T.T.T.T.T.T.T.T.T.T.T.T.T.T.T.T.T.T.T.T.T.T.",
"T.T.T.T.T.T.T.T.T.T.T.T.T.T.T.T.T.T.T.T.T.T.T.T.T.T.T.T.T.T.T.T.T.T.T.T.T.T.T.T.T.T.T.T.T.T.T.T.T.T.T.T.T.T.T.T.T.T.T.T.T.T.T.T.",
"].].].].].].].].].].].].].].].].].].].].].].].].].].].].].].].].].].].].].].].].].].].].].].].].].].].].].].].].].].].].].].].].",
"].].].].].].].].].].].].].].].].].].].].].].].].].].].].].].].].].].].].].].].].].].].].].].].].].].].].].].].].].].].].].].].].",
"].].].].].].].].].].].].].].].].].].].].].].].].].].].].].].].].].].].].].].].].].].].].].].].].].].].].].].].].].].].].].].].].",
"].].].].].].].].].].].].].].].].].].].].].].].].].].].].].].].].].].].].].].].].].].].].].].].].].].].].].].].].].].].].].].].].",
"T.T.T.T.T.T.T.T.T.T.T.T.T.T.T.T.T.T.T.T.T.T.T.T.T.T.T.T.T.T.T.T.T.T.T.T.T.T.T.T.T.T.T.T.T.T.T.T.T.T.T.T.T.T.T.T.T.T.T.T.T.T.T.T.",
"T.T.T.T.T.T.T.T.T.T.T.T.T.T.T.T.T.T.T.T.T.T.T.T.T.T.T.T.T.T.T.T.T.T.T.T.T.T.T.T.T.T.T.T.T.T.T.T.T.T.T.T.T.T.T.T.T.T.T.T.T.T.T.T.",
"T.T.T.T.T.T.T.T.T.T.T.T.T.T.T.T.T.T.T.T.T.T.I.E.E.E.E.E.E.E.E.E.E.E.E.E.E.E.E.E.E.I.T.T.T.T.T.T.T.T.T.T.T.T.T.T.T.T.T.T.T.T.T.T.",
"T.T.T.T.T.T.T.T.T.T.T.T.T.T.T.T.T.T.T.T.T.~.x.k.k.k.k.k.k.k.k.k.g.d.d.d.d.d.d.d.d.f.R.T.T.T.T.T.T.T.T.T.T.T.T.T.T.T.T.T.T.T.T.T.",
"].].].].].].].].].].].].].].].].].].].].].b.9.8.8.8.8.8.8.8.8.2.*.*.*.*.*.*.*.*.*.;.v.].].].].].].].].].].].].].].].].].].].].].",
"].].].].].].].].].].].].].].].].].].].]./.j.4.4.4.4.4.4.4.4.4.1.&.X.X.X.X.X.X.X.X.&.<.^.].].].].].].].].].].].].].].].].].].].].",
"].].].].].].].].].].].].].].].].].].]._.b.8.4.4.4.4.4.4.4.4.4.1.&.X.X.X.X.X.X.X.X.X.*.k._.].].].].].].].].].].].].].].].].].].].",
"].].].].].].].].].].].].].'._.(.U.F.B.a.9.4.4.4.4.4.4.4.4.4.4.1.&.X.X.X.X.X.X.X.X.X.X.+.i.y.V.H.T._.'.].].].].].].].].].].].].].",
"T.T.T.T.T.T.T.T.I.P.J.D.B.n.t.z k g h s.4.4.4.4.4.4.4.4.4.4.4.1.&.X.X.X.X.X.X.X.X.X.X.X.K 4 3 6 9 f x u.V.G.P.I.T.T.T.T.T.T.T.T.",
"T.T.T.I.P.J.D.B.n.H z k g g s a i a w.2.4.4.4.4.4.4.4.4.4.4.4.1.&.X.X.X.X.X.X.X.X.X.X.X.} > < X < 1 2 3 6 9 f x u.V.G.P.I.T.T.T.",
"P.D.B.n.H z k g g s a i i i i i i y #.4.4.4.4.4.4.4.4.4.4.4.3.>.X.X.X.X.X.X.X.X.X.X.X.X.X.E @   . X X < X < 1 2 3 5 9 f x u.Z.P.",
"n.k g g s a i i i i i i p w q 0 0.T 2.4.4.4.4.4.4.4.4.4.4.3.:.o.[ { X.X.X.X.X.X.X.X.X.X.X...m - $ @ o X X X X X < X < 1 2 3 7 j ",
"g a i i i i i i i p a F U I _ ` O.<.4.4.4.4.4.4.4.4.4.4.4.1.*. ./ (  .&.&.&.X.X.X.X.X.X.X.X.] R A N n C & X X X X X . X X X < 3 ",
"i i p a q 0 0.0 i p w @.| ..X.&.:.4.4.4.4.4.4.4.4.4.4.4.4.-.X. ./ / { X.&.&.X.X.X.X.X.X.X.X.X.{ / ^ ~ Q n X X X : ; $ @ X X < < ",
"i i p 0 _ ` O.P i p w ' &.X.X.=.3.4.4.4.4.4.4.4.4.4.4.4.1.*.X. ./ / (  .&.X.&.X.X.X.X.X.X.X.X. .( / / / N X X X C R A N # X X X ",
"i i p D ..X.X.U i p w ' &.X.&.>.4.4.4.4.4.4.4.3.1.1.>.:.-.X.X. ./ / / [ {  . . .X.X.X.X.X.X.X.X.{ / / / N X X X b / / ! & . X X ",
"i i i D X.X.X.U i p w ' &.X.-.3.4.4.4.4.4.4.3.:.=.*.&.&.&.X.X. ./ / / / / ( ( ( { X.X.X.X.X.X.X. .[ / / N X X X b / / ~ = . X X ",
"i i i D ......U i p w ' &.&.1.4.4.4.4.4.4.4.1.*.X.X.X.X.X.X.X. ./ / / / / / / / (  .X.X.X.X.X.X.X. ./ / N X X X v ^ ~ Q & . X X ",
"i i p q P P P 0 i p w ' &.-.4.4.4.4.4.4.4.4.3.*.X.X.X.X.X.X.X. ./ / / / / / / / ( X.X.X.X.X.X.X.X.X.[ / N X X X : V V B @ X X X ",
"i i p a 9 9 9 a i p w ' &.1.4.4.4.4.4.4.4.4.3.:.&.X.X.X.X.X.X. ./ / / / / / / (  .X.X.X.X.X.X.X.X.X. .( N X X X X o o o X X X X ",
"i i i i i i i i i p w ' *.3.4.4.4.4.4.4.4.4.4.3.:.&.X.X.X.X.X. ./ / / / / / ( { X.X.X.X.X.X.X.X.X.X. .( N X X X X , , X X X X X ",
"i i p 9 q q q w i p w ' &.1.4.4.4.4.4.4.4.4.4.4.3.:.&.X.X.X.X. ./ / / / / ( { X.X.X.X.X.X.X.X.X.X.X. ./ N X X X O + + @ o X X X ",
"i i i 0 _ _ _ D i p w ' &.=.3.4.4.4.4.4.4.4.4.4.4.3.=.X.X.X.X. ./ / / / / [ X.X.X.X.X.X.X.X.X.X.X. .( / N X X X ; S S N # . X X ",
"i i i D ..X...U i p w ' &.&.>.4.4.4.4.4.4.4.4.4.4.3.*.X.X.X.X. ./ / / / / ( X.X.X.X.X.X.X.X.X.X.X.{ / / N X X X b / ^ ! * . X X ",
"i i i D X.X.X.U i p w ' &.X.=.1.4.4.4.4.4.4.4.4.4.1.&.X.X.X.X. ./ / / / / (  .X.X.X.X.X.X.X.X.X. .( / / N X X X b / / ~ = . X X ",
"i i p D ..X.X.U i p w ' &.X.&.-.4.4.4.4.4.4.4.4.4.1.&.X.X.X.X. ./ / / / / /  .X.X.X.X.X.X.X.X.X.[ / / / N X X X b / ^ Q & . X X ",
"i i p r P I @.0.i p w ' &.X.X.*.1.4.4.4.4.4.4.4.4.>.X.X.X.&.=.-.{ ( / / / /  .X.X.X.X.X.X.X.X. .( / / / N X X X B N b B @ X X X ",
"a i p a 9 e q e i p 9 Y ` | ..X.-.3.4.4.4.4.4.4.4.1.=.&.*.:.1.1.X. .{ ( / [  .X.X.X.X.X.X.X.X.[ / ~ W Z C X X X @ # @ o X X < < ",
"l a i i i i i i i p p q 0 D P I @.,.4.4.4.4.4.4.4.3.1.>.1.3.4.1.&.X. . . . .X.X.X.X.X.X.X.X.) M b B - $ @ X X X X X X X X X < 8 ",
"K.M.H l g s a i i i i i p a 9 e t q.5.4.4.4.4.4.4.4.4.4.4.4.4.1.&.X.X.X.X.X.X.X.X.X.X.X.X.} > + @ o X X X X X X < < 1 3 8 d G F.",
"'.).T.U.H.C.M.H l g s a i i i i i e e.4.4.4.4.4.4.4.4.4.4.4.4.1.&.X.X.X.X.X.X.X.X.X.X.X...J o X X X X < < 1 3 8 d x m.Z.H.Y.(.'.",
"].].].].'._.).T.U.H.A.M.H l g s a p u ,.4.4.4.4.4.4.4.4.4.4.4.1.&.X.X.X.X.X.X.X.X.X.X.X.) % < < 1 3 8 f x m.Z.H.Y.(._.'.].].].].",
"T.T.T.T.T.T.T.T.I.I.P.L.G.D.V.N.y.c j r.4.4.4.4.4.4.4.4.4.4.4.1.&.X.X.X.X.X.X.X.X.X.X...L 7 d j t.N.V.D.G.P.I.I.T.T.T.T.T.T.T.T.",
"T.T.T.T.T.T.T.T.T.T.T.T.T.I.I.P.L.G.D.S.h.4.4.4.4.4.4.4.4.4.4.1.&.X.X.&.X.X.X.X.X.X.X.$.p.V.D.G.P.I.I.T.T.T.T.T.T.T.T.T.T.T.T.T.",
"T.T.T.T.T.T.T.T.T.T.T.T.T.T.T.T.T.T.I.I.x.8.4.4.4.4.4.4.4.4.4.1.&.X.X.X.X.X.X.X.X.X.o.f.I.I.T.T.T.T.T.T.T.T.T.T.T.T.T.T.T.T.T.T.",
"T.T.T.T.T.T.T.T.T.T.T.T.T.T.T.T.T.T.T.I.~.l.4.4.4.4.4.4.4.4.3.1.&.X.X.X.X.X.X.X.X.X.%.R.T.T.T.T.T.T.T.T.T.T.T.T.T.T.T.T.T.T.T.T.",
"].].].].].].].].].].].].].].].].].].].].].!.z.9.9.9.9.9.9.9.9.7.;.;.;.;.;.;.;.;.;.6.Q.].].].].].].].].].].].].].].].].].].].].].",
"].].].].].].].].].].].].].].].].].].].].].`./.!.!.!.!.!.!.!.!.!.W.c.c.c.c.c.c.c.W.^.`.].].].].].].].].].].].].].].].].].].].].].",
"].].].].].].].].].].].].].].].].].].].].].].].].].].].].].].].].].].].].].].].].].].].].].].].].].].].].].].].].].].].].].].].].",
"].].].].].].].].].].].].].].].].].].].].].].].].].].].].].].].].].].].].].].].].].].].].].].].].].].].].].].].].].].].].].].].].",
"T.T.T.T.T.T.T.T.T.T.T.T.T.T.T.T.T.T.T.T.T.T.T.T.T.T.T.T.T.T.T.T.T.T.T.T.T.I.I.I.T.T.T.T.T.T.T.T.T.T.T.T.T.T.T.T.T.T.T.T.T.T.T.T.",
"T.T.T.T.T.T.T.T.T.T.T.T.T.T.T.T.T.T.T.T.T.T.T.T.T.T.T.T.T.T.T.T.T.T.T.T.T.T.I.I.T.T.T.T.T.T.T.T.T.T.T.T.T.T.T.T.T.T.T.T.T.T.T.T.",
"T.T.T.T.T.T.T.T.T.T.T.T.T.T.T.T.T.T.T.T.T.T.T.T.T.T.T.T.T.T.T.T.T.T.T.T.T.T.I.T.T.T.T.T.T.T.T.T.T.T.T.T.T.T.T.T.T.T.T.T.T.T.T.T.",
"T.T.T.T.T.T.T.T.T.T.T.T.T.T.T.T.T.T.T.T.T.T.T.T.T.T.T.T.T.T.T.T.T.T.T.T.T.T.T.T.T.T.T.T.T.T.T.T.T.T.T.T.T.T.T.T.T.T.T.T.T.T.T.T.",
"].].].].].].].].].].].].].].].].].].].].].].].].].].].].].].].].].].].].].].].].].].].].].].].].].].].].].].].].].].].].].].].].",
"].].].].].].].].].].].].].].].].].].].].].].].].].].].].].].].].].].].].].].].].].].].].].].].].].].].].].].].].].].].].].].].].",
"].].].].].].].].].].].].].].].].].].].].].].].].].].].].].].].].].].].].].].].].].].].].].].].].].].].].].].].].].].].].].].].].",
"].].].].].].].].].].].].].].].].].].].].].].].].].].].].].].].].].].].].].].].].].].].].].].].].].].].].].].].].].].].].].].].].",
"T.T.T.T.T.T.T.T.T.T.T.T.T.T.T.T.T.T.T.T.T.T.T.T.T.T.T.T.T.T.T.T.T.T.T.T.T.T.T.T.T.T.T.T.T.T.T.T.T.T.T.T.T.T.T.T.T.T.T.T.T.T.T.T.",
"T.T.T.T.T.T.T.T.T.T.T.T.T.T.T.T.T.T.T.T.T.T.T.T.T.T.T.T.T.T.T.T.T.T.T.T.T.T.T.T.T.T.T.T.T.T.T.T.T.T.T.T.T.T.T.T.T.T.T.T.T.T.T.T.",
"T.T.T.T.T.T.T.T.T.T.T.T.T.T.T.T.T.T.T.T.T.T.T.T.T.T.T.T.T.T.T.T.T.T.T.T.T.T.T.T.T.T.T.T.T.T.T.T.T.T.T.T.T.T.T.T.T.T.T.T.T.T.T.T.",
"T.T.T.T.T.T.T.T.T.T.T.T.T.T.T.T.T.T.T.T.T.T.T.T.T.T.T.T.T.T.T.T.T.T.T.T.T.T.T.T.T.T.T.T.T.T.T.T.T.T.T.T.T.T.T.T.T.T.T.T.T.T.T.T."
};
