/* XPM */
static char *result[] = {
/* columns rows colors chars-per-pixel */
"64 64 95 2 ",
"   c #0C0000",
".  c #110000",
"X  c #120202",
"o  c #1D0000",
"O  c #2C0606",
"+  c #320000",
"@  c #3E0000",
"#  c #25251F",
"$  c #470000",
"%  c #4C0A0A",
"&  c #580000",
"*  c #520808",
"=  c #5E0C0C",
"-  c #6C0C0C",
";  c #6E0E0E",
":  c #790000",
">  c #781010",
",  c #7D1D1B",
"<  c #62201C",
"1  c #64221E",
"2  c #672C26",
"3  c #46463C",
"4  c #594238",
"5  c #60493F",
"6  c #4E4E42",
"7  c #56564A",
"8  c #6D5D4F",
"9  c #636353",
"0  c #646456",
"q  c #766658",
"w  c #70705E",
"e  c #7C7C6A",
"r  c #7F7F6B",
"t  c #880E0E",
"y  c #960000",
"u  c #801111",
"i  c #881212",
"p  c #9A1414",
"a  c #A21010",
"s  c #AC1313",
"d  c #B11212",
"f  c #B01515",
"g  c #BA1818",
"h  c #842F29",
"j  c #C21616",
"k  c #C81414",
"l  c #CA1818",
"z  c #CC1B1B",
"x  c #D41818",
"c  c #D41C1C",
"v  c #DA1A1A",
"b  c #E61E1E",
"n  c #CB2120",
"m  c #CC2220",
"M  c #DA2625",
"N  c #E62625",
"B  c #E72726",
"V  c #E62A29",
"C  c #E63331",
"Z  c #E5423E",
"A  c #D94D47",
"S  c #D9504A",
"D  c #DD514B",
"F  c #D85952",
"G  c #DD5E57",
"H  c #E84541",
"J  c #E54A45",
"K  c #E84D48",
"L  c #E5514B",
"P  c #E9554F",
"I  c #E55650",
"U  c #E95A54",
"Y  c #DB625A",
"T  c #E5655D",
"R  c #E1685F",
"E  c #E4746A",
"W  c #E47D72",
"Q  c #EB7B71",
"!  c #8C8C78",
"~  c #E48176",
"^  c #EC857A",
"/  c #E4897D",
"(  c #EA887C",
")  c #EC897D",
"_  c #A8A88E",
"`  c #AAAA91",
"'  c #AFAF93",
"]  c #BAAC93",
"[  c #BABAA0",
"{  c #BEBEA0",
"}  c #EC9185",
"|  c #C1AC93",
" . c #D0AE95",
".. c #C2C2A6",
"X. c #D2D2B4",
/* pixels */
"X.X.X.X.X.X.X.X.X.X.X.X.X.X.X.X.X.X.X.X.X.X.X.X.X.X.X.X.X.X.X.X.X.X.X.X.X.X.X.X.X.X.X.X.X.X.X.X.X.X.X.X.X.X.X.X.X.X.X.X.X.X.X.X.",
"X.X.X.X.X.X.X.X.X.X.X.X.X.X.X.X.X.X.X.X.X.X.X.X.X.X.X.X.X.X.X.X.X.X.X.X.X.X.X.X.X.X.X.X.X.X.X.X.X.X.X.X.X.X.X.X.X.X.X.X.X.X.X.X.",
"X.X.X.X.X.X.X.X.X.X.X.X.X.X.X.X.X.X.X.X.X.X.X.X.X.X.X.X.X.X.X.X.X.X.X.X.X.X.X.X.X.X.X.X.X.X.X.X.X.X.X.X.X.X.X.X.X.X.X.X.X.X.X.X.",
"X.X.X.X.X.X.X.X.X.X.X.X.X.X.X.X.X.X.X.X.X.X.X.X.X.X.X.X.X.X.X.X.X.X.X.X.X.X.X.X.X.X.X.X.X.X.X.X.X.X.X.X.X.X.X.X.X.X.X.X.X.X.X.X.",
"{ { { { { { { { { { { { { { { { { { { { { { { { { { { { { { { { { { { { { { { { { { { { { { { { { { { { { { { { { { { { { { { { ",
"{ { { { { { { { { { { { { { { { { { { { { { { { { { { { { { { { { { { { { { { { { { { { { { { { { { { { { { { { { { { { { { { { ",
"{ { { { { { { { { { { { { { { { { { { { { { { { { { { { { { { { { { { { { { { { { { { { { { { { { { { { { { { { { { { { { { { { ",
"{ { { { { { { { { { { { { { { { { { { { { { { { { { { { { { { { { { { { { { { { { { { { { { { { { { { { { { { { { { { { { { { { ",
"X.X.X.X.X.X.X.X.X.X.X.X.X.X.X.X.X.X.X.X.X.X.X.X.X.X.X.X.X.X.X.X.X.X.X.X.X.X.X.X.X.X.X.X.X.X.X.X.X.X.X.X.X.X.X.X.X.X.X.X.X.X.X.X.",
"X.X.X.X.X.X.X.X.X.X.X.X.X.X.X.X.X.X.X.X.X.X.X.X.X.X.X.X.X.X.X.X.X.X.X.X.X.X.X.X.X.X.X.X.X.X.X.X.X.X.X.X.X.X.X.X.X.X.X.X.X.X.X.X.",
"X.X.X.X.X.X.X.X.X.X.X.X.X.X.X.X.X.X.X.X.X.X.X.X.X.X.X.X.X.X.X.X.X.X.X.X.X.X.X.X.X.X.X.X.X.X.X.X.X.X.X.X.X.X.X.X.X.X.X.X.X.X.X.X.",
"X.X.X.X.X.X.X.X.X.X.X.X.X.X.X.X.X.X.X.X.X.X.X.X.X.X.X.X.X.X.X.X.X.X.X.X.X.X.X.X.X.X.X.X.X.X.X.X.X.X.X.X.X.X.X.X.X.X.X.X.X.X.X.X.",
"{ { { { { { { { { { { { { { { { { { { { { { { { { { { { { { { { { { { { { { { { { { { { { { { { { { { { { { { { { { { { { { { { ",
"{ { { { { { { { { { { { { { { { { { { { { { { { { { { { { { { { { { { { { { { { { { { { { { { { { { { { { { { { { { { { { { { { ",
"{ { { { { { { { { { { { { { { { { { { { { { { { { { { { { { { { { { { { { { { { { { { { { { { { { { { { { { { { { { { { { { { { ",
"{ { { { { { { { { { { { { { { { { { { { { { { { { { { { { { { { { { { { { { { { { { { { { { { { { { { { { { { { { { { { { { { { ",
"X.X.X.X.X.X.X.X.X.X.X.X.X.X.X.X.X.X.X.X.X.X.X.X.X.X.X.X.X.X.X.X.X.X.X.X.X.X.X.X.X.X.X.X.X.X.X.X.X.X.X.X.X.X.X.X.X.X.X.X.X.X.X.X.",
"X.X.X.X.X.X.X.X.X.X.X.X.X.X.X.X.X.X.X.X.X.X.X.X.X.X.X.X.X.X.X.X.X.X.X.X.X.X.X.X.X.X.X.X.X.X.X.X.X.X.X.X.X.X.X.X.X.X.X.X.X.X.X.X.",
"X.X.X.X.X.X.X.X.X.X.X.X.X.X.X.X.X.X.X...` ` ]  .| ` [ X.X.X.X.X.X.X.X.X.X.X.X.X.X.X.X.X.X.X.X.X.X.X.X.X.X.X.X.X.X.X.X.X.X.X.X.X.",
"X.X.X.X.X.X.X.X.X.X.X.X.X.X.X.X.X...` q O O - k t O 5 ` [ X.X.X.X.X.X.X.X.X.X.X.X.X.X.X.X.X.X.X.X.X.X.X.X.X.X.X.X.X.X.X.X.X.X.X.",
"{ { { { { { { { { { { { { { { { ' 8 O > b b v k x b p O 4 _ { { { { { { { { { { { { { { { { { { { { { { { { { { { { { { { { { { ",
"{ { { { { { { { { { { { { { { ' 8 > b b b b v k x b b b p 4 _ { { { { { { { { { { { { { { { { { { { { { { { { { { { { { { { { { ",
"{ { { { { { { { { { { { { { ' 8 > b N C C V v k x b b b b p 4 _ { { { { { { { { { { { { { { { { { { { { { { { { { { { { { { { { ",
"{ { { { { { { { { { { { { ' 8 > b N I / / T M k x b b b b b p 4 _ { { { { { { { { { { { { { { { { { { { { { { { { { { { { { { { ",
"X.X.X.X.X.X.X.X.X.X.X.X.X.e = b B U } } } } R m x b b b b b b i 7 X.X...` ` ]  .| ` [ X.X.X.X.X.X.X.X.X.X.X.X.X.X.X.X.X.X.X.X.X.",
"X.X.X.X.X.X.X.X.X.X.X.X...q > b K } } } } } } G x b b b b b b p 5 ` ` q O O - k t O 5 ` [ X.X.X.X.X.X.X.X.X.X.X.X.X.X.X.X.X.X.X.",
"X.X.X.X.X.X.X.X.X.X.X.X.e = b b K } } } } } } G x b b b b b b b i X O > b b v k x b p O 5 [ X.X.X.X.X.X.X.X.X.X.X.X.X.X.X.X.X.X.",
"X.X.X.X.X.X.X.X.X.X.X.X.e = b b H ^ } } } } ( S x b b b b b b c u > b b b b v k x b b b p 5 [ X.X.X.X.X.X.X.X.X.X.X.X.X.X.X.X.X.",
"{ { { { { { { { { { { { w = b b b Z W / / ~ A k x b b b b b c u > b N C C V v k x b b b b p 4 _ { { { { { { { { { { { { { { { { ",
"{ { { { { { { { { { { { w = b b b b Z E E L v k x b b b b c u > b N I / / T M k x b b b b b p 4 _ { { { { { { { { { { { { { { { ",
"{ { { { { { { { { { { { w = b b b b b b b b v k x b b b b i = b N I / / / / Y n x b b b b b b i 6 { { { { { { { { { { { { { { { ",
"{ { { { { { { { { { { { w = b b b b b b b b v k x b b b c u > b J / / / / / / F x b b b b b b p 4 _ { { { { { { { { { { { { { { ",
"X.X.X.X.X.X.X.X.X.X.X.X.! 1 z b b b b b b b v k x b b b i = b b K } } } } } } G x b b b b b b b i 7 X.X.X.X.X.X.X.X.X.X.X.X.X.X.",
"X.X.X.X.X.X.X.X.X.X.X.X.X.e = b b b b b b b v k x b b b i = b b H ^ } } } } ( S x b b b b b b b i 7 X.X.X.X.X.X.X.X.X.X.X.X.X.X.",
"X.X.X.X.X.X.X.X.X.X.X.X...0 % g g g g g g g f d x b b b i = b b b H ^ } } ) D k x b b b b b b b i 7 X.X.X.X.X.X.X.X.X.X.X.X.X.X.",
"X.X.X.X.X.X.X.X.X.X.X.X.e   o o o o o o o o . * x b b b i = b b b b H Q Q P v k x b b b b b b b i 7 X.X.X.X.X.X.X.X.X.X.X.X.X.X.",
"{ { { { { { { { { { { { w @ y y y y y y y y & * x b b b i = b b b b b b b b v k x b b b b b b b i 6 { { { { { { { { { { { { { { ",
"{ { { { { { { { { { { { w @ y y y y y y y y & * x b c g ; = b b b b b b b b v k x b b b b b b b i 6 { { { { { { { { { { { { { { ",
"{ { { { { { { { { { { { w + : : : : : : : : $ * j g , # # < z b b b b b b b v k x b b b b b b c , 9 { { { { { { { { { { { { { { ",
"{ { { { { { { { { { { { r # # # # # # # # # # 2 h # 9 { { w = b b b b b b b v k x b b b b b b i 6 { { { { { { { { { { { { { { { ",
"X.X.X.X.X.X.X.X.X.X.X.X.X.X.X.X.X.X.X.X.X.X.X.X.X.X.X.X.X.! 1 z b b b b b b l a s g g g g g g ; 3 [ X.X.X.X.X.X.X.X.X.X.X.X.X.X.",
"X.X.X.X.X.X.X.X.X.X.X.X.X.X.X.X.X.X.X.X.X.X.X.X.X.X.X.X.X.X.! 1 z b b b b b i   o o o o o o o o . 7 X.X.X.X.X.X.X.X.X.X.X.X.X.X.",
"X.X.X.X.X.X.X.X.X.X.X.X.X.X.X.X.X.X.X.X.X.X.X.X.X.X.X.X.X.X.X.! 1 z b b b b i @ y y y y y y y y & 7 X.X.X.X.X.X.X.X.X.X.X.X.X.X.",
"X.X.X.X.X.X.X.X.X.X.X.X.X.X.X.X.X.X.X.X.X.X.X.X.X.X.X.X.X.X.X.X.! 1 g z b b i @ y y y y y y y y & 7 X.X.X.X.X.X.X.X.X.X.X.X.X.X.",
"{ { { { { { { { { { { { { { { { { { { { { { { { { { { { { { { { { r # < g g ; + : : : : : : : : $ 6 { { { { { { { { { { { { { { ",
"{ { { { { { { { { { { { { { { { { { { { { { { { { { { { { { { { { { { r # # # # # # # # # # # # # 9 { { { { { { { { { { { { { { ",
"{ { { { { { { { { { { { { { { { { { { { { { { { { { { { { { { { { { { { { { { { { { { { { { { { { { { { { { { { { { { { { { { { ",
"{ { { { { { { { { { { { { { { { { { { { { { { { { { { { { { { { { { { { { { { { { { { { { { { { { { { { { { { { { { { { { { { { ",
"X.X.X.X.X.X.X.X.X.X.X.X.X.X.X.X.X.X.X.X.X.X.X.X.X.X.X.X.X.X.X.X.X.X.X.X.X.X.X.X.X.X.X.X.X.X.X.X.X.X.X.X.X.X.X.X.X.X.X.X.X.X.X.X.",
"X.X.X.X.X.X.X.X.X.X.X.X.X.X.X.X.X.X.X.X.X.X.X.X.X.X.X.X.X.X.X.X.X.X.X.X.X.X.X.X.X.X.X.X.X.X.X.X.X.X.X.X.X.X.X.X.X.X.X.X.X.X.X.X.",
"X.X.X.X.X.X.X.X.X.X.X.X.X.X.X.X.X.X.X.X.X.X.X.X.X.X.X.X.X.X.X.X.X.X.X.X.X.X.X.X.X.X.X.X.X.X.X.X.X.X.X.X.X.X.X.X.X.X.X.X.X.X.X.X.",
"X.X.X.X.X.X.X.X.X.X.X.X.X.X.X.X.X.X.X.X.X.X.X.X.X.X.X.X.X.X.X.X.X.X.X.X.X.X.X.X.X.X.X.X.X.X.X.X.X.X.X.X.X.X.X.X.X.X.X.X.X.X.X.X.",
"{ { { { { { { { { { { { { { { { { { { { { { { { { { { { { { { { { { { { { { { { { { { { { { { { { { { { { { { { { { { { { { { { ",
"{ { { { { { { { { { { { { { { { { { { { { { { { { { { { { { { { { { { { { { { { { { { { { { { { { { { { { { { { { { { { { { { { ",
"{ { { { { { { { { { { { { { { { { { { { { { { { { { { { { { { { { { { { { { { { { { { { { { { { { { { { { { { { { { { { { { { { ",
"{ { { { { { { { { { { { { { { { { { { { { { { { { { { { { { { { { { { { { { { { { { { { { { { { { { { { { { { { { { { { { { { { ",
"X.X.X.X.X.X.X.X.X.X.X.X.X.X.X.X.X.X.X.X.X.X.X.X.X.X.X.X.X.X.X.X.X.X.X.X.X.X.X.X.X.X.X.X.X.X.X.X.X.X.X.X.X.X.X.X.X.X.X.X.X.X.X.X.",
"X.X.X.X.X.X.X.X.X.X.X.X.X.X.X.X.X.X.X.X.X.X.X.X.X.X.X.X.X.X.X.X.X.X.X.X.X.X.X.X.X.X.X.X.X.X.X.X.X.X.X.X.X.X.X.X.X.X.X.X.X.X.X.X.",
"X.X.X.X.X.X.X.X.X.X.X.X.X.X.X.X.X.X.X.X.X.X.X.X.X.X.X.X.X.X.X.X.X.X.X.X.X.X.X.X.X.X.X.X.X.X.X.X.X.X.X.X.X.X.X.X.X.X.X.X.X.X.X.X.",
"X.X.X.X.X.X.X.X.X.X.X.X.X.X.X.X.X.X.X.X.X.X.X.X.X.X.X.X.X.X.X.X.X.X.X.X.X.X.X.X.X.X.X.X.X.X.X.X.X.X.X.X.X.X.X.X.X.X.X.X.X.X.X.X.",
"{ { { { { { { { { { { { { { { { { { { { { { { { { { { { { { { { { { { { { { { { { { { { { { { { { { { { { { { { { { { { { { { { ",
"{ { { { { { { { { { { { { { { { { { { { { { { { { { { { { { { { { { { { { { { { { { { { { { { { { { { { { { { { { { { { { { { { ",
"{ { { { { { { { { { { { { { { { { { { { { { { { { { { { { { { { { { { { { { { { { { { { { { { { { { { { { { { { { { { { { { { { ",
"{ { { { { { { { { { { { { { { { { { { { { { { { { { { { { { { { { { { { { { { { { { { { { { { { { { { { { { { { { { { { { { { { "
};
