/* XPM */
static char *result[] = {
/* columns rows colors chars-per-pixel */
"64 64 91 1 ",
"  c #5A1010",
". c #6B1313",
"X c #711515",
"o c #67332D",
"O c #69322C",
"+ c #6B3731",
"@ c #6D3630",
"# c #643E36",
"$ c #664239",
"% c #6A443C",
"& c #6C483F",
"* c #4E4E42",
"= c #56564A",
"- c #5C5C4E",
"; c #626252",
": c #666658",
"> c #6C6C5C",
", c #70705E",
"< c #6D6D65",
"1 c #71716B",
"2 c #7C7C6A",
"3 c gray47",
"4 c #821818",
"5 c #991C1C",
"6 c #9D1D1D",
"7 c #882F2B",
"8 c #892D2D",
"9 c #8B322E",
"0 c #8C312D",
"q c #8E332F",
"w c #943737",
"e c #963B36",
"r c #963D37",
"t c #993E39",
"y c #AE2020",
"u c #B02020",
"i c #DC2828",
"p c #CB3B37",
"a c #CB3D39",
"s c #CD3F3B",
"d c #CE3E3A",
"f c #E13938",
"g c #E23A38",
"h c #9A413B",
"j c #C4433E",
"k c #C2453F",
"l c #E3403E",
"z c #AC4F4F",
"x c #B3564D",
"c c #B2574E",
"v c #BA5048",
"b c #BF554D",
"n c #B1584F",
"m c #B15A50",
"M c #B75E55",
"N c #B95C53",
"B c #B85D54",
"V c #AA6055",
"C c #B76056",
"Z c #B1675C",
"A c #BF6E63",
"S c #C74641",
"D c #C64943",
"F c #CD5852",
"G c #E44240",
"H c #E54946",
"J c #E74B48",
"K c #E8504D",
"L c #E85652",
"P c #EA5855",
"I c #ED615D",
"U c #EE635F",
"Y c #D5726A",
"T c #EF6964",
"R c #F06A65",
"E c #F17771",
"W c #F57B75",
"Q c #84846F",
"! c #888872",
"~ c #92927D",
"^ c #96967E",
"/ c #969680",
"( c #989880",
") c #959589",
"_ c #9D9D91",
"` c #A1A18F",
"' c #A6A68E",
"] c #A8A890",
"[ c #ADAD9B",
"{ c #BEBEA0",
"} c #D2D2B4",
/* pixels */
"}}}}}}}}}}}}}}}}}}}}}}}}}}}}}}}[33_}}}}}}}}}}}}}}}}}}}}}}}}}}}}}",
"}}}}}}}}}}}}}}}}}}}}}}}}}}}}}}}[33_}}}}}}}}}}}}}}}}}}}}}}}}}}}}}",
"}}}}}}}}}}}}}}}}}}}}}}}}}}}}}}}[33_}}}}}}}}}}}}}}}}}}}}}}}}}}}}}",
"}}}}}}}}}}}}}}}}}}}}}}}}}}}}}}}[33_}}}}}}}}}}}}}}}}}}}}}}}}}}}}}",
"{{{{{{{{{{{{{{{{{{{{{{{{{{{{{{{`33){{{{{{{{{{{{{{{{{{{{{{{{{{{{{",
"{{{{{{{{{{{{{{{{{{{{{{{{{{{{{{{`33){{{{{{{{{{{{{{{{{{{{{{{{{{{{{",
"{{{{{{{{{{{{{{{{{{{{{{{{{{{{{{{`33){{{{{{{{{{{{{{{{{{{{{{{{{{{{{",
"{{{{{{{{{{{{{{{{{{{{{{{{{{{{{{{`33){{{{{{{{{{{{{{{{{{{{{{{{{{{{{",
"}}}}}}}}}}}}}}}}}}}}}}}}}}}}}}}[33_}}}}}}}}}}}}}}}}}}}}}}}}}}}}}",
"}}}}}}}}}}}}}}}}}}}}}}}}}}}}}}}[33_}}}}}}}}}}}}}}}}}}}}}}}}}}}}}",
"}}}}}}}}}}}}}}}}}}}}}}}}}}}}}}}[33_}}}}}}}}}}}}}}}}}}}}}}}}}}}}}",
"}}}}}}}}}}}}}}}}}}}}}}}}}}}}'::<331::~}}}}}}}}}}}}}}}}}}}}}}}}}}",
"{{{{{{{{{{{{{{{{{{{{{{{{{^--#XX8zzwXXO--Q{{{{{{{{{{{{{{{{{{{{{{{",
"{{{{{{{{{{{{{{{{{{{{{{{^-#XX0mmmmmmmmrXXO-Q{{{{{{{{{{{{{{{{{{{{{",
"{{{{{{{{{{{{{{{{{{{{{^-#X0mmnxxxxxxxxcmmrXO-Q{{{{{{{{{{{{{{{{{{{",
"{{{{{{{{{{{{{{{{{{{{^#X0mnxxjiiiiiiiipxxcmrXOQ{{{{{{{{{{{{{{{{{{",
"}}}}}}}}}}}}}}}}}}}'%6sMAYGiiiiiiiiiiiiidNBDu@~}}}}}}}}}}}}}}}}}",
"}}}}}}}}}}}}}}}}}}'%6sMFUWRGiiiiiiiiiiiiiidBDu@~}}}}}}}}}}}}}}}}",
"}}}}}}}}}}}}}}}}}'%6sMSJWWWPiiiiiiiiiiiiiiidBDu@~}}}}}}}}}}}}}}}",
"}}}}}}}}}}}}}}}}'%6sMSgUWWWRGiiiiiiiiiiiiiiidBDu@~}}}}}}}}}}}}}}",
"{{{{{{{{{{{{{{{^#6anjiHEEEEELiiiiiiiiiiiiiiiipckuOQ{{{{{{{{{{{{{",
"{{{{{{{{{{{{{{{, anjiiHEEEEELiiiiiiiiiiiiiiiiipck4*{{{{{{{{{{{{{",
"{{{{{{{{{{{{{{^#0njiiiHEEEEELiiiiiiiiiiiiiiiiiipcrOQ{{{{{{{{{{{{",
"{{{{{{{{{{{{{{, vViiiiHEEEEELiiiiiiiiiiiiiiiiiiivV4*{{{{{{{{{{{{",
"}}}}}}}}}}}}}'%qMSiiiifIWWWTliiiiiiiiiiiiiiiiiiidBh@~}}}}}}}}}}}",
"}}}}}}}}}}}}}2 bZiiiiiiJWWWPiiiiiiiiiiiiiiiiiiiiibZ4=}}}}}}}}}}}",
"}}}}}}}}}}}}}2 bZiiiiiifIWTliiiiiiiiiiiiiiiiiiiiibZ4=}}}}}}}}}}}",
"}}}}}}}}}}}}'%qMSiiiiiiifKliiiiiiiiiiiiiiiiiiiiiidBh@~}}}}}}}}}}",
"{{{{{{{{{{{{, vViiiiiiiiiiiiiiiiiiiiiiiiiiiiiiiiiivV4*{{{{{{{{{{",
"{{{{{{{{{{{{, vViiiiiiiiiiiiiiiiiiiiiiiiiiiiiiiiiivV4*{{{{{{{{{{",
"{{{{{{{{{{{{, vViiiiiiiiiiiiiiiiiiiiiiiiiiiiiiiiiivV4*{{{{{{{{{{",
"{{{{{{{{{{{{, vViiiiiiiiiiiiiiiiiiiiiiiiiiiiiiiiiivV4*{{{{{{{{{{",
"}}}}}}}}}}}}2 bZiiiiiiiiiiiiiiiiiiiiiiiiiiiiiiiiiibZ4=}}}}}}}}}}",
"}}}}}}}}}}}}2 bZiiiiiiiiiiiiiiiiiiiiiiiiiiiiiiiiiibZ4=}}}}}}}}}}",
"}}}}}}}}}}}}2 bZiiiiiiiiiiiiiiiiiiiiiiiiiiiiiiiiiibZ4=}}}}}}}}}}",
"}}}}}}}}}}}}2 bZiiiiiiiiiiiiiiiiiiiiiiiiiiiiiiiiiibZ4=}}}}}}}}}}",
"{{{{{{{{{{{{($7ckiiiiiiiiiiiiiiiiiiiiiiiiiiiiiiiianeo!{{{{{{{{{{",
"{{{{{{{{{{{{{, vViiiiiiiiiiiiiiiiiiiiiiiiiiiiiiiivV4*{{{{{{{{{{{",
"{{{{{{{{{{{{{, vViiiiiiiiiiiiiiiiiiiiiiiiiiiiiiiivV4*{{{{{{{{{{{",
"{{{{{{{{{{{{{($7ckiiiiiiiiiiiiiiiiiiiiiiiiiiiiiianeo!{{{{{{{{{{{",
"}}}}}}}}}}}}}}2 bZiiiiiiiiiiiiiiiiiiiiiiiiiiiiiibZ4=}}}}}}}}}}}}",
"}}}}}}}}}}}}}}]&9BDiiiiiiiiiiiiiiiiiiiiiiiiiiiisMt+/}}}}}}}}}}}}",
"}}}}}}}}}}}}}}}2 dBDiiiiiiiiiiiiiiiiiiiiiiiiiisMS4=}}}}}}}}}}}}}",
"}}}}}}}}}}}}}}}]&5dBDiiiiiiiiiiiiiiiiiiiiiiiisMSy+/}}}}}}}}}}}}}",
"{{{{{{{{{{{{{{{{($5pckiiiiiiiiiiiiiiiiiiiiiianjyo!{{{{{{{{{{{{{{",
"{{{{{{{{{{{{{{{{{($5pckiiiiiiiiiiiiiiiiiiiianjyo!{{{{{{{{{{{{{{{",
"{{{{{{{{{{{{{{{{{{($5pckiiiiiiiiiiiiiiiiiianjyo!{{{{{{{{{{{{{{{{",
"{{{{{{{{{{{{{{{{{{{($5pcmkiiiiiiiiiiiiiiamnjyo!{{{{{{{{{{{{{{{{{",
"}}}}}}}}}}}}}}}}}}}}]&.9NBCCDiiiiiiiisCCMNt.+/}}}}}}}}}}}}}}}}}}",
"}}}}}}}}}}}}}}}}}}}}}]>&.9NNBCCCCCCCCMNNt.+>/}}}}}}}}}}}}}}}}}}}",
"}}}}}}}}}}}}}}}}}}}}}}}]>&..9NNNNNNNNt..+>/}}}}}}}}}}}}}}}}}}}}}",
"}}}}}}}}}}}}}}}}}}}}}}}}}]>>&........+>>/}}}}}}}}}}}}}}}}}}}}}}}",
"{{{{{{{{{{{{{{{{{{{{{{{{{{{{(;;;;;;;;!{{{{{{{{{{{{{{{{{{{{{{{{{{",
"{{{{{{{{{{{{{{{{{{{{{{{{{{{{{{{{{{{{{{{{{{{{{{{{{{{{{{{{{{{{{{{{",
"{{{{{{{{{{{{{{{{{{{{{{{{{{{{{{{{{{{{{{{{{{{{{{{{{{{{{{{{{{{{{{{{",
"{{{{{{{{{{{{{{{{{{{{{{{{{{{{{{{{{{{{{{{{{{{{{{{{{{{{{{{{{{{{{{{{",
"}}}}}}}}}}}}}}}}}}}}}}}}}}}}}}}}}}}}}}}}}}}}}}}}}}}}}}}}}}}}}}}}",
"}}}}}}}}}}}}}}}}}}}}}}}}}}}}}}}}}}}}}}}}}}}}}}}}}}}}}}}}}}}}}}}}",
"}}}}}}}}}}}}}}}}}}}}}}}}}}}}}}}}}}}}}}}}}}}}}}}}}}}}}}}}}}}}}}}}",
"}}}}}}}}}}}}}}}}}}}}}}}}}}}}}}}}}}}}}}}}}}}}}}}}}}}}}}}}}}}}}}}}",
"{{{{{{{{{{{{{{{{{{{{{{{{{{{{{{{{{{{{{{{{{{{{{{{{{{{{{{{{{{{{{{{{",
"{{{{{{{{{{{{{{{{{{{{{{{{{{{{{{{{{{{{{{{{{{{{{{{{{{{{{{{{{{{{{{{{",
"{{{{{{{{{{{{{{{{{{{{{{{{{{{{{{{{{{{{{{{{{{{{{{{{{{{{{{{{{{{{{{{{",
"{{{{{{{{{{{{{{{{{{{{{{{{{{{{{{{{{{{{{{{{{{{{{{{{{{{{{{{{{{{{{{{{"
};
