/* XPM */
static char *_94a9c52fe7442c5cb355b32d3a1437d3CKaP2gZ7jbpXhrF[] = {
/* columns rows colors chars-per-pixel */
"64 64 201 2 ",
"   c #272624",
".  c #292724",
"X  c #2B2926",
"o  c #322D27",
"O  c #322D28",
"+  c #3C3227",
"@  c #35322D",
"#  c #363531",
"$  c #393532",
"%  c #3B3933",
"&  c #463A2B",
"*  c #433C34",
"=  c #2B721F",
"-  c #336F22",
";  c #3A6D23",
":  c #2D7320",
">  c #2E7822",
",  c #337223",
"<  c #357629",
"1  c #3B7A2E",
"2  c #564A2E",
"3  c #43423B",
"4  c #4B443A",
"5  c #514436",
"6  c #594836",
"7  c #644B2E",
"8  c #675E2E",
"9  c #6B5A2F",
"0  c #644F35",
"q  c #6E5537",
"w  c #745532",
"e  c #785731",
"r  c #745C32",
"t  c #795933",
"y  c #7D5F3A",
"u  c #446A26",
"i  c #5F602C",
"p  c #47742A",
"a  c #51712C",
"s  c #5E6F30",
"d  c #467A35",
"f  c #62612C",
"g  c #6C6231",
"h  c #676C32",
"j  c #7D633D",
"k  c #687E36",
"l  c #797D3C",
"z  c #4D4D45",
"x  c #544E43",
"c  c #58564B",
"v  c #5D5C51",
"b  c #776C46",
"n  c #676255",
"m  c #7F7D6A",
"M  c #805E36",
"N  c #955A3D",
"B  c #82633D",
"V  c #85783F",
"C  c #9C5E40",
"Z  c #B35D47",
"A  c #846441",
"S  c #8B6A42",
"D  c #876C48",
"F  c #926D43",
"G  c #916E4F",
"H  c #837A46",
"J  c #897941",
"K  c #937444",
"L  c #9A7345",
"P  c #957847",
"I  c #9B7548",
"U  c #9E7B4E",
"Y  c #8E7451",
"T  c #9C7C51",
"R  c #987D59",
"E  c #AA6A4A",
"W  c #B76C4E",
"Q  c #B3704D",
"!  c #A17D51",
"~  c #CE4E4E",
"^  c #D14F4F",
"/  c #CF5654",
"(  c #D35252",
")  c #DE5857",
"_  c #E45454",
"`  c #E85555",
"'  c #E55857",
"]  c #E55E5B",
"[  c #C96757",
"{  c #CD6D55",
"}  c #DC6758",
"|  c #D1705A",
" . c #E5615E",
".. c #EA665D",
"X. c #F0645F",
"o. c #D96D6A",
"O. c #D4716C",
"+. c #DC736B",
"@. c #D0786F",
"#. c #E46963",
"$. c #F66461",
"%. c #FE6464",
"&. c #FF6B6B",
"*. c #EB7574",
"=. c #348525",
"-. c #368927",
";. c #388927",
":. c #3C8629",
">. c #378928",
",. c #3B8A2B",
"<. c #45842B",
"1. c #4C842E",
"2. c #40882C",
"3. c #478437",
"4. c #498D3C",
"5. c #548735",
"6. c #479136",
"7. c #67893F",
"8. c #578B41",
"9. c #5A9847",
"0. c #669248",
"q. c #6E944E",
"w. c #669853",
"e. c #69A259",
"r. c #6D9166",
"t. c #6E9568",
"y. c #759769",
"u. c #799673",
"i. c #789773",
"p. c #9E8557",
"a. c #9E815A",
"s. c #A28156",
"d. c #A3845B",
"f. c #A7895F",
"g. c #859376",
"h. c #96947D",
"j. c #A58B63",
"k. c #A98961",
"l. c #A08D6B",
"z. c #AB926B",
"x. c #A89A78",
"c. c #8DA37C",
"v. c #DB827F",
"b. c #EB857E",
"n. c #9B9B84",
"m. c #9DAC83",
"M. c #9FB486",
"N. c #ACA586",
"B. c #A3A28A",
"V. c #A9AB88",
"C. c #B3A987",
"Z. c #A7B689",
"A. c #B8B48F",
"S. c #A7A791",
"D. c #ACAB93",
"F. c #B0AE93",
"G. c #ACBB92",
"H. c #B3B195",
"J. c #B4B797",
"K. c #BBB596",
"L. c #B7BA9A",
"P. c #BCBC9E",
"I. c #BEBEA0",
"U. c #C79C87",
"Y. c #D09180",
"T. c #FE8584",
"R. c #FF8989",
"E. c #F3948E",
"W. c #C6A48D",
"Q. c #C8A58E",
"!. c #C5A191",
"~. c #C3AA92",
"^. c #C0B491",
"/. c #C2B499",
"(. c #C2BB9D",
"). c #D7B49D",
"_. c #D9B5A7",
"`. c #DEBAB1",
"'. c #F3BCBC",
"]. c #ABC091",
"[. c #B7C39B",
"{. c #C2C1A6",
"}. c #C9C2A2",
"|. c #C2CAA6",
" X c #C6C8A8",
".X c #CCC9AA",
"XX c #D3C5AA",
"oX c #D4C8AD",
"OX c #CFCFB1",
"+X c #D7C4B0",
"@X c #D1CFB1",
"#X c #CFD0B1",
"$X c #D1D1B3",
"%X c #D2D2B4",
"&X c #D1D5BF",
"*X c #EBC6BE",
"=X c #D8D6C4",
"-X c #F6C8C6",
";X c #ECD9D1",
":X c #E9E2D8",
">X c #FDEEED",
/* pixels */
"%X%X%X%X%X%X%X%X%X%X%X%X%X%X%X%X%X%X%X%X%X%X%X%X%X%X%X%X%X%X%X%X%X%X%X%X%X%X%X%X%X%X%X%X%X%X%X%X%X%X%X%X%X%X%X%X%X%X%X%X%X%X%X%X",
"%X%X%X%X%X%X%X%X%X%X%X%X%X%X%X%X%X%X%X%X%X%X%X%X%X%X%X%X%X%X%X%X%X%X%X%X%X%X%X%X%X%X%X%X%X%X%X%X%X%X%X%X%X%X%X%X%X%X%X%X%X%X%X%X",
"%X%X%X%X%X%X%X%X%X%X%X%X%X%X%X%X%X%X%X%X%X%X%X%X%X%X%X%X%X%X%X%X%X%X%X%X%X%X%X%X%X%X%X%X%X%X%X%X%X%X%X%X%X%X%X%X%X%X%X%X%X%X%X%X",
"%X%X%X%X%X%X%X%X%X%X%X%X%X%X%X%X%X%X%X%X%X%X%X%X%X%X%X%X%X%X%X%X%X%X%X%X%X%X%X%X%X%X%X%X%X%X%X%X%X%X%X%X%X%X%X%X%X%X%X%X%X%X%X%X",
"I.I.I.I.I.I.I.I.I.I.I.I.I.I.I.I.I.I.I.I.I.I.I.I.I.I.P.P.P.P.P.P.P.P.P.P.P.P.P.I.I.I.I.I.I.I.I.I.I.I.I.I.I.I.I.I.I.I.I.I.I.I.I.I.",
"I.I.I.I.I.I.I.I.I.I.I.I.I.I.I.I.I.I.I.I.I.I.I.I.I.I.P.J.n.n.n.n.n.n.n.n.n.B.P.I.I.I.I.I.I.I.I.I.I.I.I.I.I.I.I.I.I.I.I.I.I.I.I.I.",
"I.I.I.I.I.I.I.I.I.I.I.I.I.I.I.I.I.I.I.I.I.I.I.I.I.P.P.n.3 # $ % 3 3 3 3 z n H.P.P.I.I.I.I.I.I.I.I.I.I.I.I.I.I.I.I.I.I.I.I.I.I.I.",
"I.I.I.I.I.I.I.I.I.I.I.I.I.I.I.I.I.I.I.I.I.I.I.I.P.J.n.m @ X X O $ $ $ $ % z h.B.P.I.I.I.I.I.I.I.I.I.I.I.I.I.I.I.I.I.I.I.I.I.I.I.",
"%X%X%X%X%X%X%X%X%X%X%X%X%X%X%X%X%X%X%X%X%X%X%X%X$XD.4 @ X X @ $ $ $ $ $ $ % 4 n  X%X%X%X%X%X%X%X%X%X%X%X%X%X%X%X%X%X%X%X%X%X%X%X",
"%X%X%X%X%X%X%X%X%X%X%X%X%X%X%X%X%X%X%X%X%X%X%X%XOXD.$ . . X # $ $ $ $ $ $ $ % v {.%X%X%X%X%X%X%X%X%X%X%X%X%X%X%X%X%X%X%X%X%X%X%X",
"%X%X%X%X%X%X%X%X%X%X%X%X%X%X%X%X%X%X%X%X%X%X%X%XOXD.% . X o $ $ $ $ $ $ $ $ % v {.%X%X%X%X%X%X%X%X%X%X%X%X%X%X%X%X%X%X%X%X%X%X%X",
"%X%X%X%X%X%X%X%X%X%X%X%X%X%X%X%X%X%X%X%X%X%X%X%XOXF.5 & & & 5 5 5 5 5 4 $ $ % v {.%X%X%X%X%X%X%X%X%X%X%X%X%X%X%X%X%X%X%X%X%X%X%X",
"I.I.I.I.I.I.I.I.I.I.I.I.I.I.I.I.I.I.I.I.I.I.I.I.P.N.y t S S F F F F F y * $ % c H.I.I.I.I.I.I.I.I.I.I.I.I.I.I.I.I.I.I.I.I.I.I.I.",
"I.I.I.I.I.I.I.I.I.I.I.I.I.I.I.I.I.I.I.I.I.I.I.I.P.N.B M L L L L L L L A * % 5 n H.I.I.I.I.I.I.I.I.I.I.I.I.I.I.I.I.I.I.I.I.I.I.I.",
"I.I.I.I.I.I.I.I.I.I.I.I.I.I.I.I.I.I.I.I.I.I.I.I.P.N.j M L L L L L L L A * 5 S a.K.I.I.I.I.I.I.I.I.I.I.I.I.I.I.I.I.I.I.I.I.I.I.I.",
"I.I.I.I.I.I.I.I.I.I.I.I.I.I.I.I.I.I.I.I.I.I.I.I.P.N.q w F L L F B B K S 6 0 K d.K.I.I.I.I.I.I.I.I.I.I.I.I.I.I.I.I.I.I.I.I.I.I.I.",
"%X%X%X%X%X%X%X%X%X%X%X%X%X%X%X%X%X%X%X%X%X%X%X%XOXD.* & F L L B & & F L F F I f..X#X#X$X$X$X$X%X%X%X%X%X%X%X%X%X%X%X%X%X%X%X%X%X",
"%X%X%X%X%X%X%X%X%X%X%X%X%X%X%X%X%X%X%X%X%X%X%X%XOXH.x 6 F L L A 5 6 F L L L L p.Z.].G.[.#X%X%X%X%X%X%X%X%X%X%X%X%X%X%X%X%X%X%X%X",
"%X%X%X%X%X%X%X%X%X%X%X%X%X%X%X%X%X%X%X%X%X%X%X$XOX(.j.R L L L I a.R I L L L L J 4.6.6.w.|.$X$X%X%X%X%X%X%X%X%X%X%X%X%X%X%X%X%X%X",
"%X%X%X%X%X%X%X%X%X%X%X%X%X%X%X%X%X%X%X%X%X%X$X.XG.V.d.T A j B S s.s.L L F S V k :.:.1.0.A.}.$X%X%X%X%X%X%X%X%X%X%X%X%X%X%X%X%X%X",
"I.I.I.I.I.I.I.I.I.I.I.P.P.P.P.P.P.P.P.I.I.P.P.m.3.p r q + o + 5 F I L F M g <.:.;.1.J P U j.K.P.P.I.I.I.I.I.I.I.I.I.I.I.I.I.I.I.",
"I.I.I.I.I.I.I.I.I.I.P.(.Q.W.W.W.W.~.P.I.P.L.m.y.< ; i 2 & + + 6 E Q Q E C B :.-.-.1.K L L s.C.H.P.I.I.I.I.I.I.I.I.I.I.I.I.I.I.I.",
"I.I.I.I.I.I.I.I.I.P.(.Q.#.] ] ) / O./.P.P.m.3.< : : , u 9 w w N ..$.$.$.X.{ 1.>.>.1.K L L L U j.K.I.I.I.I.I.I.I.I.I.I.I.I.I.I.I.",
"I.I.I.I.I.I.I.I.P.(.Q.Y.] ` _ ) ^ [ U.~.P.m.p ; : : = ; f r N Z $.%.%.%.%.} l 7.e.q.P L L L L d.K.I.I.I.I.I.I.I.I.I.I.I.I.I.I.I.",
"%X%X%X%X%X%X%X%X$X_.#.] ` _ ( ^ ~ ^ / @.XXK.j f - : : : - h } $.%.%.%.%.%.$.#.E.:X=Xs.L L L I k..X%X%X%X%X%X%X%X%X%X%X%X%X%X%X%X",
"%X%X%X%X%X%X%X%X$X). .` ` _ ^ ~ ~ ~ ~ O.+X/.A 9 u ; : : : s ..%.%.%.%.%.%.%.%.R.>X:Xs.L L L I k..X%X%X%X%X%X%X%X%X%X%X%X%X%X%X%X",
"%X%X%X%X%X%X%X%X$X). .` ` _ ^ ~ ~ ~ ( +.-X_.A e r f - : : s ..%.%.%.%.%.%.%.&.R.>X;Xs.L L L I k..X%X%X%X%X%X%X%X%X%X%X%X%X%X%X%X",
"%X%X%X%X%X%X%X%X$X). .` ` _ ( ^ ~ ( o.v._.!.B e e 8 - : : s ..%.%.%.%.%.%.&.R.E.;X+X! L L L I j..X%X%X%X%X%X%X%X%X%X%X%X%X%X%X%X",
"I.I.I.I.I.I.I.I.P.Q. .` ` ` ` _ ( o.'._.G B e e e 8 - : : s ..%.%.%.%.%.%.T.:X;Xk.! L L L L I d.K.I.I.I.I.I.I.I.I.I.I.I.I.I.I.I.",
"I.I.I.I.I.I.I.I.P.~.+.#.` ` ` _ ( +.-X`.A w e e e 8 - : : a W } $.%.%.%.%.b.&X|.T L L L L I d.z.L.I.I.I.I.I.I.I.I.I.I.I.I.I.I.I.",
"I.I.I.I.I.I.I.I.I.(./.U. .` ` ` ' *.-X`.A e e e t g , : : , p h ..%.%.%.$.| 8.5.K L L L I d.A.K.P.I.I.I.I.I.I.I.I.I.I.I.I.I.I.I.",
"I.I.I.I.I.I.I.I.I.I.P.~.+.o.+.+.+.v.*X_.A e e y D b , : : : : a W { { { { E <.<.l J a.d.d.z.K.I.I.I.I.I.I.I.I.I.I.I.I.I.I.I.I.I.",
"%X%X%X%X%X%X%X%X%X%X%X@XoXXXXXXXXXoX%X/.A t y Y (.Z.1 : : : : , <.1.1.1.1.<.>.;.2.0.[..X.X.X%X%X%X%X%X%X%X%X%X%X%X%X%X%X%X%X%X%X",
"%X%X%X%X%X%X%X%X%X%X%X%X%X%X%X%X%X%X$X(.R Y Y l..X[.w.3., : : > =.=.-.-.-.-.-.-.>.9.|.%X%X%X%X%X%X%X%X%X%X%X%X%X%X%X%X%X%X%X%X%X",
"%X%X%X%X%X%X%X%X%X%X%X%X%X%X%X%X%X%X%X@X.X X X.X%X#X|.M.1 > : : > > -.>.>.>.>.>.>.9.|.%X%X%X%X%X%X%X%X%X%X%X%X%X%X%X%X%X%X%X%X%X",
"%X%X%X%X%X%X%X%X%X%X%X%X%X%X%X%X%X%X%X%X%X%X%X%X%X%X$X[.w.8.d d d 3.4.4.4.4.4.4.4.w.|.%X%X%X%X%X%X%X%X%X%X%X%X%X%X%X%X%X%X%X%X%X",
"I.I.I.I.I.I.I.I.I.I.I.I.I.I.I.I.I.I.I.I.I.I.I.I.I.I.I.P.G.V.u.u.u.u.u.u.u.u.u.u.u.c.L.I.I.I.I.I.I.I.I.I.I.I.I.I.I.I.I.I.I.I.I.I.",
"I.I.I.I.I.I.I.I.I.I.I.I.I.I.I.I.I.I.I.I.I.I.I.I.I.I.P.L.m.c.r.r.r.r.t.t.t.t.t.t.t.g.L.I.I.I.I.I.I.I.I.I.I.I.I.I.I.I.I.I.I.I.I.I.",
"I.I.I.I.I.I.I.I.I.I.I.I.I.I.I.I.I.I.I.I.I.I.I.I.I.I.P.m.3.< < < < < ,.,.,.,.,.,.2.9.J.I.I.I.I.I.I.I.I.I.I.I.I.I.I.I.I.I.I.I.I.I.",
"I.I.I.I.I.I.I.I.I.I.I.I.I.I.I.I.I.I.I.I.I.I.I.I.I.I.P.m.1 : = : > > =.-.-.-.-.-.>.9.G.I.I.I.I.I.I.I.I.I.I.I.I.I.I.I.I.I.I.I.I.I.",
"%X%X%X%X%X%X%X%X%X%X%X%X%X%X%X%X%X%X%X%X%X%X%X%X%X%X#XG.1 : : > =.-.-.-.-.-.-.-.>.9.|.$X$X%X%X%X%X%X%X%X%X%X%X%X%X%X%X%X%X%X%X%X",
"%X%X%X%X%X%X%X%X%X%X%X%X%X%X%X%X%X%X%X%X%X%X%X%X%X%X#XG.d ; : > =.-.-.-.-.-.-.:.1.0.A.}.@X%X%X%X%X%X%X%X%X%X%X%X%X%X%X%X%X%X%X%X",
"%X%X%X%X%X%X%X%X%X%X%X%X%X%X%X%X%X%X%X%X%X%X%X%X%X$XOXK.j f - > =.-.-.-.-.-.>.1.J P T z..X%X%X%X%X%X%X%X%X%X%X%X%X%X%X%X%X%X%X%X",
"%X%X%X%X%X%X%X%X%X%X%X%X%X%X%X%X%X%X%X%X%X%X%X%X$X.XK.x.B 9 u ; =.-.-.-.-.:.1.k K L L f..X%X%X%X%X%X%X%X%X%X%X%X%X%X%X%X%X%X%X%X",
"I.I.I.I.I.I.I.I.I.I.I.I.I.I.I.I.I.I.I.I.I.I.I.P.P.N.D y e e r f :.-.-.-.-.1.V K L L L d.K.P.P.I.I.I.I.I.I.I.I.I.I.I.I.I.I.I.I.I.",
"I.I.I.I.I.I.I.I.I.I.I.I.I.I.I.I.I.I.I.I.I.I.P.L.N.l.y e e e e g p <.;.-.>.1.K L L L L s.C.H.P.I.I.I.I.I.I.I.I.I.I.I.I.I.I.I.I.I.",
"I.I.I.I.I.I.I.I.I.I.I.I.I.I.I.I.I.I.I.I.I.I.P.C.D y e e e e e e r h :.>.>.1.K L L L L L U j.K.I.I.I.I.I.I.I.I.I.I.I.I.I.I.I.I.I.",
"I.I.I.I.I.I.I.I.I.I.I.I.I.I.I.I.I.I.I.I.I.I.P.N.B e e e e e e y D H 9.9.9.0.K L L L L L L d.K.I.I.I.I.I.I.I.I.I.I.I.I.I.I.I.I.I.",
"%X%X%X%X%X%X%X%X%X%X%X%X%X%X%X%X%X%X%X%X%X%X$XK.B e e e e e y Y (..X|.|.|.A.T L L L L L I k..X%X%X%X%X%X%X%X%X%X%X%X%X%X%X%X%X%X",
"%X%X%X%X%X%X%X%X%X%X%X%X%X%X%X%X%X%X%X%X%X%X$XK.B e e e e y Y l..X%X%X%X$X}.z.d.I L L L I k..X%X%X%X%X%X%X%X%X%X%X%X%X%X%X%X%X%X",
"%X%X%X%X%X%X%X%X%X%X%X%X%X%X%X%X%X%X%X%X%X$XOXK.B e e e y Y (..X$X%X%X%X%X$X.X^.U L L L I k..X%X%X%X%X%X%X%X%X%X%X%X%X%X%X%X%X%X",
"%X%X%X%X%X%X%X%X%X%X%X%X%X%X%X%X%X%X%X%X$X.XK.x.B e e y Y l..X%X%X%X%X%X%X%X$X(.! L L L I k..X%X%X%X%X%X%X%X%X%X%X%X%X%X%X%X%X%X",
"I.I.I.I.I.I.I.I.I.I.I.I.I.I.I.I.I.I.I.I.P.C.D y e e t D C.K.P.I.I.I.I.I.I.I.P.C.U L L L L d.K.I.I.I.I.I.I.I.I.I.I.I.I.I.I.I.I.I.",
"I.I.I.I.I.I.I.I.I.I.I.I.I.I.I.I.I.I.I.I.P.N.q 7 7 7 7 b H.I.I.I.I.I.I.I.I.I.P.H.j.T A j j Y K.I.I.I.I.I.I.I.I.I.I.I.I.I.I.I.I.I.",
"I.I.I.I.I.I.I.I.I.I.I.I.I.I.I.I.I.I.I.I.P.n.* O o X O x F.I.I.I.I.I.I.I.I.I.I.P.K.h.% o @ x H.I.I.I.I.I.I.I.I.I.I.I.I.I.I.I.I.I.",
"I.I.I.I.I.I.I.I.I.I.I.I.I.I.I.I.I.I.I.I.P.B.c 3 X   X z D.I.I.I.I.I.I.I.I.I.I.I.P.n.#   X z D.I.I.I.I.I.I.I.I.I.I.I.I.I.I.I.I.I.",
"%X%X%X%X%X%X%X%X%X%X%X%X%X%X%X%X%X%X%X%X%XOX{.n.#   X z {.%X%X%X%X%X%X%X%X%X%X%XOXD.%   X z {.%X%X%X%X%X%X%X%X%X%X%X%X%X%X%X%X%X",
"%X%X%X%X%X%X%X%X%X%X%X%X%X%X%X%X%X%X%X%X%X%X@XD.%   X z {.%X%X%X%X%X%X%X%X%X%X%XOXD.%   X z {.%X%X%X%X%X%X%X%X%X%X%X%X%X%X%X%X%X",
"%X%X%X%X%X%X%X%X%X%X%X%X%X%X%X%X%X%X%X%X%X$X.XS.%   X z {.%X%X%X%X%X%X%X%X%X%X%XOXD.%   X z I.$X$X%X%X%X%X%X%X%X%X%X%X%X%X%X%X%X",
"%X%X%X%X%X%X%X%X%X%X%X%X%X%X%X%X%X%X%X%X$X.XD.g.@   X z {.%X%X%X%X%X%X%X%X%X%X%XOXD.%   . 3 n.H.OX%X%X%X%X%X%X%X%X%X%X%X%X%X%X%X",
"I.I.I.I.I.I.I.I.I.I.I.I.I.I.I.I.I.I.I.I.P.n.3 @ .   X z D.I.I.I.I.I.I.I.I.I.I.I.P.n.#   . X # c H.I.I.I.I.I.I.I.I.I.I.I.I.I.I.I.",
"I.I.I.I.I.I.I.I.I.I.I.I.I.I.I.I.I.I.I.I.P.B.z 3 3 3 3 v H.I.I.I.I.I.I.I.I.I.I.I.P.B.z 3 3 3 3 v H.I.I.I.I.I.I.I.I.I.I.I.I.I.I.I.",
"I.I.I.I.I.I.I.I.I.I.I.I.I.I.I.I.I.I.I.I.I.I.I.I.I.I.I.I.I.I.I.I.I.I.I.I.I.I.I.I.I.I.I.I.I.I.I.I.I.I.I.I.I.I.I.I.I.I.I.I.I.I.I.I.",
"I.I.I.I.I.I.I.I.I.I.I.I.I.I.I.I.I.I.I.I.I.I.I.I.I.I.I.I.I.I.I.I.I.I.I.I.I.I.I.I.I.I.I.I.I.I.I.I.I.I.I.I.I.I.I.I.I.I.I.I.I.I.I.I."
};
